<svg xmlns="http://www.w3.org/2000/svg" width="1280" height="720" viewBox="0 0 1280 720">
  <rect width="1280" height="720" fill="#0A1628"/>
  <rect x="0" y="0" width="1280" height="4" fill="#4A90D9"/>
  <rect x="0" y="716" width="1280" height="4" fill="#4A90D9"/>
  <!-- Hex grid decoration -->
  <g opacity="0.07" fill="#4A90D9">
    <polygon points="100,120 130,103 160,120 160,154 130,171 100,154"/>
    <polygon points="160,120 190,103 220,120 220,154 190,171 160,154"/>
    <polygon points="220,120 250,103 280,120 280,154 250,171 220,154"/>
    <polygon points="130,171 160,154 190,171 190,205 160,222 130,205"/>
    <polygon points="190,171 220,154 250,171 250,205 220,222 190,205"/>
    <polygon points="1000,520 1030,503 1060,520 1060,554 1030,571 1000,554"/>
    <polygon points="1060,520 1090,503 1120,520 1120,554 1090,571 1060,554"/>
    <polygon points="1120,520 1150,503 1180,520 1180,554 1150,571 1120,554"/>
    <polygon points="1030,571 1060,554 1090,571 1090,605 1060,622 1030,605"/>
    <polygon points="1090,571 1120,554 1150,571 1150,605 1120,622 1090,605"/>
  </g>
  <!-- Center hex logo -->
  <polygon points="640,300 676,279 712,300 712,342 676,363 640,342" fill="none" stroke="#4A90D9" stroke-width="2.5" opacity="0.4"/>
  <polygon points="640,310 667,294 694,310 694,342 667,358 640,342" fill="#4A90D9" opacity="0.12"/>
  <text x="676" y="336" font-family="monospace" font-size="22" fill="#4A90D9" text-anchor="middle" opacity="0.9">⬡</text>
  <!-- Label -->
  <text x="640" y="420" font-family="'Courier New', monospace" font-size="13" fill="#4A90D9" text-anchor="middle" letter-spacing="4" opacity="0.55">TOOLHAIVE AI</text>
  <text x="640" y="460" font-family="'Arial', sans-serif" font-size="28" font-weight="700" fill="#ffffff" text-anchor="middle" opacity="0.88">HAIVE — General Chat Interface</text>
  <text x="640" y="495" font-family="'Courier New', monospace" font-size="11" fill="#4A90D9" text-anchor="middle" letter-spacing="3" opacity="0.4">PLACEHOLDER · REPLACE WITH ACTUAL SCREENSHOT</text>
</svg>
